<svg width="39" height="29" viewBox="0 0 39 29" fill="none" xmlns="http://www.w3.org/2000/svg">
<path d="M32.2642 4.99161H21.3202L12.5522 13.5036V22.0156C12.5522 25.5356 15.4322 28.4156 18.9522 28.4156H32.3282C35.8482 28.4156 38.7282 25.5356 38.7282 22.0156V11.3916C38.6642 7.87161 35.7842 4.99161 32.2642 4.99161ZM28.0402 13.3116C27.5282 13.3116 27.2082 12.9276 27.2082 12.2876C27.2082 11.6476 27.2082 8.57561 27.2082 8.57561H30.3442C34.4402 8.57561 34.6962 10.6876 34.6962 13.3116C34.6962 13.3116 28.5522 13.3116 28.0402 13.3116Z" fill="#E62A2A"/>
<path d="M11.7841 10.1116L17.4801 4.4156L14.4721 1.4076L13.0641 2.8156C11.4641 1.2796 9.67213 0.319602 7.68813 0.0636022C5.19213 -0.256398 2.76013 0.639603 0.328125 2.5596L3.01612 5.8236C4.48812 4.6076 5.89612 4.0956 7.17612 4.2236C8.13612 4.3516 9.16013 4.8636 10.0561 5.7596L8.71212 7.1036L11.7841 10.1116Z" fill="#E62A2A"/>
</svg>
