<svg width="20" height="20" viewBox="0 0 20 20" fill="none" xmlns="http://www.w3.org/2000/svg">
<g opacity="0.9">
<path d="M19.4373 8.4375L17.4582 7.89583C17.1665 7.20833 17.0415 6.91667 16.7707 6.20833L17.7915 4.41667C17.9373 4.16667 17.8957 3.85417 17.6873 3.66667L16.354 2.33333C16.1457 2.125 15.8332 2.08333 15.604 2.22917L13.8123 3.25C13.1248 2.95833 12.8332 2.83333 12.1248 2.5625L11.5832 0.583333C11.4998 0.3125 11.2498 0.125 10.979 0.125H9.08317C8.7915 0.125 8.5415 0.3125 8.479 0.583333L7.93734 2.5625C7.24984 2.85417 6.95817 2.97917 6.24984 3.25L4.45817 2.22917C4.20817 2.08333 3.89567 2.125 3.70817 2.33333L2.37484 3.66667C2.1665 3.875 2.12484 4.1875 2.27067 4.41667L3.2915 6.20833C2.99984 6.89583 2.87484 7.1875 2.604 7.89583L0.624837 8.4375C0.354004 8.52083 0.166504 8.77083 0.166504 9.04167V10.9375C0.166504 11.2292 0.354004 11.4792 0.624837 11.5417L2.604 12.0833C2.89567 12.7708 3.02067 13.0625 3.2915 13.7708L2.27067 15.5625C2.12484 15.8125 2.1665 16.125 2.37484 16.3125L3.70817 17.6458C3.9165 17.8542 4.229 17.8958 4.45817 17.75L6.24984 16.7292C6.93734 17.0208 7.229 17.1458 7.93734 17.4167L8.479 19.3958C8.56234 19.6667 8.81234 19.8542 9.08317 19.8542H10.979C11.2707 19.8542 11.5207 19.6667 11.5832 19.3958L12.1248 17.4167C12.8123 17.125 13.104 17 13.8123 16.7292L15.604 17.75C15.854 17.8958 16.1665 17.8542 16.354 17.6458L17.6873 16.3125C17.8957 16.1042 17.9373 15.7917 17.7915 15.5625L16.7707 13.7708C17.0623 13.0833 17.1873 12.7917 17.4582 12.0833L19.4373 11.5417C19.7082 11.4583 19.8957 11.2083 19.8957 10.9375V9.04167C19.8957 8.77083 19.7082 8.52083 19.4373 8.4375ZM9.99984 14.375C7.58317 14.375 5.62484 12.4167 5.62484 10C5.62484 7.58333 7.58317 5.625 9.99984 5.625C12.4165 5.625 14.3748 7.58333 14.3748 10C14.3748 12.4167 12.4165 14.375 9.99984 14.375Z" fill="#646B75"/>
</g>
</svg>
