<svg width="20" height="18" viewBox="0 0 20 18" fill="none" xmlns="http://www.w3.org/2000/svg">
<path d="M0.626498 8.25714C0.786022 8.48095 1.09555 8.53095 1.31936 8.37143L9.60269 2.43571C9.7765 2.3119 10.0075 2.3119 10.1813 2.43571L18.4646 8.37143C18.6884 8.53095 18.9979 8.48095 19.1574 8.25714L19.6884 7.51428C19.8479 7.29047 19.7979 6.98095 19.5741 6.82143L17.0027 4.98095C16.8717 4.88809 16.7955 4.73809 16.7955 4.57857V1.69762C16.7955 1.42381 16.5741 1.20238 16.3003 1.20238H15.3884C15.1122 1.20238 14.8908 1.42381 14.8908 1.69762V2.50238C14.8908 2.90714 14.4336 3.14048 14.1051 2.90476L10.1789 0.0928571C10.0051 -0.0309524 9.77412 -0.0309524 9.60031 0.0928571L0.20745 6.82381C-0.0163592 6.98333 -0.0663591 7.29286 0.0931647 7.51666L0.626498 8.25714Z" fill="#2368EE"/>
<path d="M17.2717 16.4952V8.76189C17.2717 8.46427 17.1264 8.18808 16.8812 8.02142L10.3979 3.5857C10.0931 3.37618 9.68834 3.37618 9.38358 3.5857L2.90024 8.01903C2.655 8.18808 2.50977 8.46427 2.50977 8.76189V16.4952C2.50977 16.9905 2.91215 17.3928 3.40739 17.3928H7.08834C7.58358 17.3928 7.98596 16.9905 7.98596 16.4952V16.2024V12.869V12.1C7.98596 11.6047 8.38834 11.2024 8.88358 11.2024H10.8979C11.3931 11.2024 11.7955 11.6047 11.7955 12.1V12.869V16.2024V16.4952C11.7955 16.9905 12.1979 17.3928 12.6931 17.3928H16.3741C16.8693 17.3928 17.2717 16.9905 17.2717 16.4952Z" fill="#2368EE"/>
</svg>
