<svg width="20" height="20" viewBox="0 0 20 20" fill="none" xmlns="http://www.w3.org/2000/svg">
<g opacity="0.9">
<path d="M10.8001 19.9999C10.7042 19.9999 10.6097 19.9713 10.5185 19.9418C10.1645 19.8277 9.9033 19.5226 9.88244 19.1428L9.22057 12.4835C9.1265 11.5371 8.37902 10.7879 7.43287 10.6916L0.87068 10.0237C0.447151 9.97611 0.0942096 9.64277 0.0471508 9.23801C-0.0234375 8.80944 0.211857 8.40468 0.588327 8.2142L18.4707 0.0951556C18.8236 -0.071511 19.2471 -8.24016e-05 19.5295 0.285632C19.8119 0.571346 19.8824 0.999918 19.7177 1.35706L11.6942 19.4523C11.506 19.7856 11.153 19.9999 10.8001 19.9999Z" fill="#646B75"/>
</g>
</svg>
