<svg width="40" height="40" viewBox="0 0 40 40" fill="none" xmlns="http://www.w3.org/2000/svg">
<g clip-path="url(#clip0)">
<path fill-rule="evenodd" clip-rule="evenodd" d="M18.2679 13.2715C15.7724 13.9134 13.9286 16.1778 13.9286 18.8747V22.7316C13.9286 23.0869 13.6398 23.375 13.2864 23.375C12.5759 23.375 12 23.9521 12 24.6607C12 25.3708 12.5767 25.9464 13.2889 25.9464H26.1397C26.8515 25.9464 27.4286 25.3693 27.4286 24.6607C27.4286 23.9506 26.8499 23.375 26.1422 23.375C25.7875 23.375 25.5 23.0892 25.5 22.7316V18.8747C25.5 16.1789 23.6565 13.9137 21.1607 13.2715V12.6074C21.1607 11.8065 20.5131 11.1607 19.7143 11.1607C18.9171 11.1607 18.2679 11.8084 18.2679 12.6074V13.2715ZM17.4643 26.5893H21.9643C21.9643 27.8319 20.9569 28.8393 19.7143 28.8393C18.4716 28.8393 17.4643 27.8319 17.4643 26.5893Z" fill="#09101D"/>
</g>
<circle cx="31" cy="11" r="3" stroke="#0B63CE" stroke-width="2"/>
<defs>
<clipPath id="clip0">
<rect width="15.4286" height="18" fill="white" transform="translate(12 11)"/>
</clipPath>
</defs>
</svg>
