<svg width="25" height="31" viewBox="0 0 25 31" fill="none" xmlns="http://www.w3.org/2000/svg">
<path d="M13.0469 0.999743C12.7422 0.697494 12.2578 0.697494 11.9531 0.999743C11.5859 1.35624 3.125 9.74949 3.125 14.725C3.125 19.8555 7.32812 24.025 12.5 24.025C17.6719 24.025 21.875 19.8555 21.875 14.725C21.875 9.74949 13.4141 1.35624 13.0469 0.999743ZM10.9375 20.15C8.35156 20.15 6.25 18.0652 6.25 15.5C6.25 15.0737 6.60156 14.725 7.03125 14.725C7.46094 14.725 7.8125 15.0737 7.8125 15.5C7.8125 17.2127 9.21094 18.6 10.9375 18.6C11.3672 18.6 11.7188 18.9487 11.7188 19.375C11.7188 19.8012 11.3672 20.15 10.9375 20.15Z" fill="#0B63CE"/>
</svg>
