<svg width="40" height="31" viewBox="0 0 40 31" fill="none" xmlns="http://www.w3.org/2000/svg">
<path d="M19.9999 0C9.44972 0 0.859863 8.64917 0.859863 19.272C0.859863 23.4469 2.19758 27.3176 4.44861 30.4776L7.16736 28.3241C5.69956 26.2137 4.7436 23.7243 4.44861 21.024H7.23986H8.97986V17.52H7.23986H4.43046C4.76222 14.4654 5.95975 11.6884 7.76546 9.417L9.74111 11.4245L10.9736 12.6655L13.4386 10.1835L12.2061 8.9425L10.2305 6.95322C12.4843 5.13995 15.231 3.9288 18.2599 3.59521V6.42396V8.176H21.7399V6.42396V3.59521C24.7687 3.9288 27.5153 5.13995 29.7693 6.95322L27.7936 8.9425L26.5611 10.1835L29.0261 12.6655L30.2586 11.4245L32.2343 9.417C34.04 11.6884 35.2374 14.4654 35.5693 17.52H32.7599H31.0199V21.024H32.7599H35.5511C35.2562 23.7243 34.3002 26.2137 32.8324 28.3241L35.5511 30.4776C37.8022 27.3176 39.1399 23.4469 39.1399 19.272C39.1399 8.64917 30.55 0 19.9999 0ZM30.2586 15.3665L17.9518 23.6338C16.8191 24.7742 16.8191 26.6179 17.9518 27.7583C19.0843 28.8986 20.9156 28.8986 22.048 27.7583L30.2586 15.3665Z" fill="#FF6B00"/>
<path d="M19.9999 0C9.44972 0 0.859863 8.64917 0.859863 19.272C0.859863 23.4469 2.19758 27.3176 4.44861 30.4776L7.16736 28.3241C5.69956 26.2137 4.7436 23.7243 4.44861 21.024H7.23986H8.97986V17.52H7.23986H4.43046C4.76222 14.4654 5.95975 11.6884 7.76546 9.417L9.74111 11.4245L10.9736 12.6655L13.4386 10.1835L12.2061 8.9425L10.2305 6.95322C12.4843 5.13995 15.231 3.9288 18.2599 3.59521V6.42396V8.176H21.7399V6.42396V3.59521C24.7687 3.9288 27.5153 5.13995 29.7693 6.95322L27.7936 8.9425L26.5611 10.1835L29.0261 12.6655L30.2586 11.4245L32.2343 9.417C34.04 11.6884 35.2374 14.4654 35.5693 17.52H32.7599H31.0199V21.024H32.7599H35.5511C35.2562 23.7243 34.3002 26.2137 32.8324 28.3241L35.5511 30.4776C37.8022 27.3176 39.1399 23.4469 39.1399 19.272C39.1399 8.64917 30.55 0 19.9999 0ZM30.2586 15.3665L17.9518 23.6338C16.8191 24.7742 16.8191 26.6179 17.9518 27.7583C19.0843 28.8986 20.9156 28.8986 22.048 27.7583L30.2586 15.3665Z" fill="#2368EE"/>
</svg>
