<svg width="36" height="36" viewBox="0 0 36 36" fill="none" xmlns="http://www.w3.org/2000/svg">
<path d="M18.0003 16.932C17.7283 16.932 17.4563 17.068 17.3203 17.204C17.1163 17.408 17.0483 17.612 17.0483 17.884C17.0483 18.156 17.1843 18.428 17.3203 18.564C17.5243 18.768 17.7283 18.836 18.0003 18.836C18.2723 18.836 18.5443 18.7 18.6803 18.564C18.8843 18.36 18.9523 18.156 18.9523 17.884C18.9523 17.612 18.8163 17.34 18.6803 17.204C18.5443 17.068 18.2723 16.932 18.0003 16.932Z" fill="#B3B3B3"/>
<path d="M33.6402 20.06C32.3482 19.924 31.2602 19.176 30.4442 17.884C30.1722 17.408 30.2402 16.796 30.7162 16.524C31.1922 16.252 31.8042 16.32 32.0762 16.796C32.6202 17.612 33.1642 18.02 33.9122 18.088C34.7282 18.224 35.4762 17.816 35.9522 17.544C35.8842 13.396 34.3882 9.656 31.9402 6.664C31.6682 7.276 31.1922 7.956 30.5802 8.432C29.8322 8.976 28.9482 9.248 27.9962 9.248C27.5882 9.248 27.1802 9.18 26.7722 9.112C26.2282 8.976 25.8882 8.5 26.0242 7.956C26.1602 7.412 26.6362 7.072 27.1802 7.208C28.1322 7.412 28.8802 7.276 29.4242 6.868C30.0362 6.392 30.3762 5.576 30.5122 5.032C27.7242 2.312 24.0522 0.543999 19.9722 0.135999C20.1762 0.815999 20.3802 1.564 20.2442 2.38C20.1082 3.672 19.3602 4.76 18.0682 5.576C17.9322 5.712 17.7282 5.712 17.5242 5.712C17.1842 5.712 16.9122 5.576 16.7082 5.236C16.4362 4.76 16.5042 4.148 16.9802 3.876C17.7962 3.332 18.2042 2.788 18.2722 2.04C18.4082 1.224 18.0002 0.476 17.7282 0C13.5802 0.068 9.84021 1.564 6.84821 4.012C7.46021 4.284 8.14021 4.76 8.61621 5.372C9.36421 6.392 9.63621 7.684 9.36421 9.18C9.29621 9.656 8.88821 9.996 8.41221 9.996C8.34421 9.996 8.27621 9.996 8.20821 9.996C7.66421 9.86 7.32421 9.384 7.46021 8.84C7.66421 7.888 7.52821 7.14 7.12021 6.596C6.44021 5.984 5.62421 5.712 5.08021 5.576C2.36021 8.364 0.59221 12.036 0.18421 16.116C0.86421 15.912 1.61221 15.708 2.42821 15.844C3.72021 15.98 4.80821 16.728 5.62421 18.02C5.89621 18.496 5.82821 19.108 5.35221 19.38C5.21621 19.516 5.01221 19.516 4.80821 19.516C4.46821 19.516 4.19621 19.38 3.99221 19.04C3.44821 18.224 2.90421 17.816 2.15621 17.748C1.34021 17.612 0.592211 18.02 0.116211 18.292C0.184211 22.44 1.68021 26.18 4.12821 29.172C4.40021 28.56 4.87621 27.88 5.48821 27.404C6.50821 26.656 7.80021 26.384 9.29621 26.656C9.84021 26.792 10.1802 27.268 10.0442 27.812C9.90821 28.356 9.43221 28.696 8.88821 28.56C7.93621 28.356 7.18821 28.492 6.64421 28.9C6.03221 29.512 5.76021 30.328 5.62421 30.872C8.41221 33.592 12.0842 35.36 16.1642 35.768C15.9602 35.088 15.7562 34.34 15.8922 33.524C16.0282 32.232 16.7762 31.144 18.0682 30.328C18.5442 30.056 19.1562 30.124 19.4282 30.6C19.7002 31.076 19.6322 31.688 19.1562 31.96C18.3402 32.504 17.9322 33.048 17.8642 33.796C17.7282 34.612 18.1362 35.36 18.4082 35.836C22.5562 35.768 26.2962 34.272 29.2882 31.824C28.6762 31.552 27.9962 31.076 27.5202 30.464C26.7722 29.444 26.5002 28.152 26.7722 26.656C26.9082 26.112 27.3842 25.772 27.9282 25.908C28.4722 26.044 28.8122 26.52 28.6762 27.064C28.4722 28.016 28.6082 28.764 29.0162 29.308C29.4922 29.92 30.3082 30.26 30.8522 30.396C33.5722 27.608 35.3402 23.936 35.7482 19.856C35.2722 20.06 34.6602 20.196 34.0482 20.196C33.9802 20.128 33.7762 20.128 33.6402 20.06ZM18.0002 26.112C13.5122 26.112 9.84021 22.44 9.84021 17.952C9.84021 13.464 13.5122 9.792 18.0002 9.792C22.4882 9.792 26.1602 13.464 26.1602 17.952C26.1602 22.44 22.4882 26.112 18.0002 26.112Z" fill="#B3B3B3"/>
</svg>
