<svg width="20" height="20" viewBox="0 0 20 20" fill="none" xmlns="http://www.w3.org/2000/svg">
<path fill-rule="evenodd" clip-rule="evenodd" d="M17.2727 10C17.2727 9.25 17.8864 8.63636 18.6364 8.63636C19.3864 8.63636 20 9.25 20 10C20 10.4318 19.9545 10.8636 19.9091 11.2955C19.2727 16.2727 15 20 10 20C4.47727 20 0 15.5227 0 10C0 4.47727 4.47727 0 10 0C11.7727 0 13.5227 0.477273 15.0455 1.38636C15.6818 1.77273 15.9091 2.59091 15.5227 3.25C15.1364 3.88636 14.3182 4.11364 13.6591 3.72727C12.5682 3.06818 11.2955 2.72727 10 2.72727C6 2.72727 2.72727 6 2.72727 10C2.72727 14 6 17.2727 10 17.2727C13.6364 17.2727 16.75 14.5455 17.2045 10.9545C17.25 10.6364 17.2727 10.3182 17.2727 10ZM9.74974 11.3409L17.5906 3.50002C18.1361 2.97729 18.9997 2.97729 19.5225 3.50002C20.0452 4.04547 20.0452 4.90911 19.5225 5.43184L10.6588 14.2955C10.4088 14.5682 10.0679 14.7046 9.70428 14.7046H9.65883C9.29519 14.7046 8.93155 14.5227 8.68155 14.25L5.29519 10.4091C4.79519 9.84093 4.84064 8.97729 5.40883 8.47729C5.97701 7.97729 6.84064 8.02275 7.34064 8.59093L9.74974 11.3409Z" fill="#646B75"/>
</svg>
