<svg width="32" height="28" viewBox="0 0 32 28" fill="none" xmlns="http://www.w3.org/2000/svg">
<path fill-rule="evenodd" clip-rule="evenodd" d="M30.7731 27.9932C30.8025 28.0085 1.34209 27.9932 1.32739 27.9932C-0.0312496 28.0341 -0.317678 26.5285 0.334374 25.5359C3.45616 19.9683 11.5132 6.44519 14.6425 0.865172C15.2576 -0.295625 16.7566 -0.275892 17.4831 0.849386C17.4831 0.879972 28.3745 20.022 31.6642 25.572C32.4921 26.8985 31.6329 28.0085 30.7731 27.9932ZM17.4509 11.7139C16.8505 11.7139 16.1543 11.7139 15.554 11.7139C13.6571 11.7139 13.6571 13.1939 13.6391 13.2492C13.2265 14.5362 11.8266 18.9046 12.2344 17.6333C12.2344 17.6333 11.7602 19.1133 13.1829 19.1133C13.5034 19.1133 13.8359 19.1133 14.1313 19.1133C15.0798 19.1133 14.8573 20.0847 14.8289 20.0694C14.6255 20.8454 14.3338 21.9588 14.092 22.8804C14.1313 23.5528 14.6055 23.0594 14.6487 23.0387C15.5967 21.6041 17.0141 19.4587 17.9417 18.0551C17.9682 18.0571 18.873 16.6462 17.4504 16.6462C17.2844 16.6462 17.1184 16.6462 16.9615 16.6462C16.0282 16.6462 16.5882 15.7257 16.5745 15.6985C16.9818 14.9926 17.5457 14.0148 18.0128 13.2048C18.073 13.2245 18.8735 11.7139 17.4509 11.7139Z" fill="#FFB902"/>
</svg>
