<svg width="20" height="20" viewBox="0 0 20 20" fill="none" xmlns="http://www.w3.org/2000/svg">
<g opacity="0.9" clip-path="url(#clip0)">
<path d="M19.0199 14.656C16.6266 12.256 14.2266 9.856 11.8199 7.456C11.7487 7.38976 11.6892 7.312 11.6439 7.226C11.8858 6.13882 11.8148 5.00536 11.4391 3.95687C11.0634 2.90837 10.3985 1.98772 9.5212 1.30152C8.64393 0.615321 7.59025 0.191633 6.48214 0.0795142C5.37404 -0.0326045 4.25684 0.171433 3.2599 0.668001L7.3999 4.17C7.53236 4.28288 7.61488 4.44352 7.62949 4.61695C7.6441 4.79037 7.58961 4.96255 7.4779 5.096L5.4399 7.512C5.32701 7.64447 5.16638 7.72699 4.99295 7.74159C4.81952 7.7562 4.64735 7.70172 4.5139 7.59L0.313899 4.04C-0.0268487 5.04226 -0.0915649 6.11776 0.12654 7.15365C0.344645 8.18954 0.837531 9.14763 1.55348 9.92741C2.26944 10.7072 3.18206 11.2799 4.19561 11.5854C5.20915 11.891 6.28625 11.9181 7.3139 11.664C7.47214 11.7427 7.61505 11.849 7.7359 11.978C10.0586 14.338 12.3972 16.6787 14.7519 19C16.0379 20.276 17.9739 20.252 19.1779 18.972C20.3279 17.758 20.2679 15.91 19.0199 14.656ZM16.9459 18.4C16.7473 18.3974 16.5511 18.3555 16.3687 18.2768C16.1863 18.1981 16.0213 18.084 15.8832 17.9413C15.7451 17.7985 15.6366 17.6298 15.5639 17.4449C15.4913 17.26 15.4559 17.0626 15.4599 16.864C15.4615 16.4678 15.6204 16.0884 15.9017 15.8093C16.183 15.5303 16.5637 15.3744 16.9599 15.376C17.3561 15.3776 17.7355 15.5365 18.0146 15.8178C18.2936 16.0991 18.4495 16.4798 18.4479 16.876C18.449 17.2767 18.2918 17.6617 18.0105 17.9471C17.7292 18.2325 17.3466 18.3953 16.9459 18.4Z" fill="#646B75"/>
</g>
<defs>
<clipPath id="clip0">
<rect width="20.0001" height="20" fill="white"/>
</clipPath>
</defs>
</svg>
