<svg fill="none" height="16" viewBox="0 0 16 16" width="16" xmlns="http://www.w3.org/2000/svg"><path clip-rule="evenodd" d="m11.5684 10.449 4.1972 4.1838c.0723.0725.128.1557.167.2444.1289.2932.0723.6479-.168.8884-.1572.1565-.3632.2344-.5693.2344-.2051 0-.4111-.0779-.5683-.2344l-4.2032-4.1903c-1.09372.8397-2.45896 1.3452-3.94333 1.3452-3.57324 0-6.48047-2.8982-6.48047-6.46029 0-3.56202 2.90723-6.46021 6.48047-6.46021 3.57323 0 6.48043 2.89819 6.48043 6.46021 0 1.50549-.5234 2.88903-1.3925 3.98879zm-5.08695-8.84646c-2.68653 0-4.87305 2.17932-4.87305 4.85779 0 2.67834 2.18652 4.85767 4.87305 4.85767 2.68652 0 4.87305-2.17933 4.87305-4.85767 0-2.67847-2.18653-4.85779-4.87305-4.85779z" fill="#fff" fill-rule="evenodd"/></svg>