<svg fill="none" height="40" viewBox="0 0 40 40" width="40" xmlns="http://www.w3.org/2000/svg"><g fill="#fff"><path d="m22.5 16.9974h-6c-.7002 0-.7002.9994 0 .9994h6c.5996 0 .6992-.9994 0-.9994z"/><path d="m16.5 19.9955h4c.6992 0 .5996.9993 0 .9993h-4c-.7002 0-.7002-.9993 0-.9993z"/><path clip-rule="evenodd" d="m13 13h14c.5996 0 1 .3997 1 .9993v9.9936c0 .5997-.4004.9994-1 .9994h-8.5996l-1.7002 1.6989c-.7002.6995-1.7002.0999-1.7002-.6996v-.9993h-2c-.5996 0-1-.3997-1-.9994v-9.9936c0-.5996.4004-.9993 1-.9993zm1 9.9936h12v-7.9949h-12z" fill-rule="evenodd"/></g></svg>