<svg fill="none" height="40" viewBox="0 0 40 40" width="40" xmlns="http://www.w3.org/2000/svg"><path clip-rule="evenodd" d="m19 12.9735s-5 0-5 9.0075l-1 1.0008c0 2.6897 14 2.7522 14 0l-1-1.0008c0-9.0075-5-9.0075-5-9.0075 0-1.2823-2-1.3136-2 0zm-3 9.683s0-7.6814 4-7.6814 4 7.6814 4 7.6814c-3 .3252-5 .3252-8 0z" fill="#fff" fill-rule="evenodd"/><path d="m17.1094 25.7434c.9531 3.0244 4.8281 2.9931 5.7812 0-1.8906.2409-3.8906.2409-5.7812 0z" fill="#fff"/><circle cx="25" cy="13" fill="#d72323" r="5" stroke="#1d2431" stroke-width="2"/></svg>