<svg fill="none" height="32" viewBox="0 0 32 32" width="32" xmlns="http://www.w3.org/2000/svg"><circle cx="16" cy="16" fill="#f1f2f5" r="16"/><path clip-rule="evenodd" d="m23.2656 19.1968.0869.1594c.2159.4125.8594 1.6281.0196 2.7156-.3594.4844-1.1319 1.375-2.1377 1.7875l-.21.0781-.0869.0032c-.2285.0406-.5.05-.7002.05-.7783 0-4.8281-.1844-8.3154-3.8344-3.68166-3.8469-3.96584-8.7562-3.54396-9.7188.45312-.97805 1.38086-1.71871 1.89066-2.06869.2089-.1344.4091-.22186.625-.28436.1933-.05005.3623-.0719.5312-.0719.6758 0 1.2305.32874 1.5332.508l.0078.00451.1592.09687c1.0967.67498 1.5283 4.08437 1.5283 4.11557-.0312.7188-.5127 1.2532-1.2002 1.9282.3907.7469 1.1153 1.7031 1.6377 2.2375.5088.5218 1.3594 1.2375 2.1465 1.6969.6094-.5657 1.0498-.9344 1.5781-1.0563l.3379-.0469.0742.0031c.0313 0 3.419.5751 4.0381 1.6969zm-2.666 2.9626c.4785-.2094 1.0029-.75 1.3311-1.1875.0967-.1282.0468-.3376-.1719-.75l-.0342-.0625c-.4092-.2657-1.9746-.7282-2.5254-.8344-.167.0865-.5986.4891-.9121.781l-.0439.0409c-.3994.3843-1.0244.4874-1.5342.2343-1.0566-.5375-2.2217-1.4937-2.9121-2.2062-.7031-.7188-1.6944-2.0438-2.1377-3.0719-.2061-.5031-.0938-1.0781.2783-1.4782l.0313-.0343.0517-.051c.2725-.2685.7022-.6927.8135-.8802-.084-.5501-.4746-2.1157-.7285-2.5376l-.0742-.0468c-.169-.10002-.4844-.28752-.6563-.24376-.0469.01562-.0908.04059-.1064.04999-.5469.37807-1.003.84687-1.21 1.24367-.08984.5938.0469 4.5094 3.1758 7.7782 2.9775 3.1156 6.3555 3.275 7.0029 3.275.1934 0 .3154-.0125.3623-.0187z" fill="#646b75" fill-rule="evenodd"/></svg>