<svg fill="none" height="32" viewBox="0 0 32 32" width="32" xmlns="http://www.w3.org/2000/svg"><circle cx="16" cy="16" fill="#f1f2f5" r="16"/><g fill="#646b75"><path d="m11.5 14.9821c.2764 0 .5-.223.5-.4981 0-.275-.2236-.498-.5-.498s-.5.223-.5.498c0 .2751.2236.4981.5.4981z"/><path d="m14 14.4747c0 .2699-.2197.4887-.4912.4887-.2705 0-.4902-.2188-.4902-.4887s.2197-.4887.4902-.4887c.2715 0 .4912.2188.4912.4887z"/><path clip-rule="evenodd" d="m20.0156 10.9883h1.9844c1.1035 0 2 .8623 2 1.9611v6.0171c0 1.0989-.8965 1.9923-2 1.9923h-.9844v2.0015c0 .5666-.4316 1.0272-1 1.0272h-7.9658c-.5684 0-1.0312-.4606-1.0312-1.0272v-2.0015h-1.0186c-1.10352 0-2-.8934-2-1.9923v-6.0171c0-1.0988.89648-1.9611 2-1.9611h2.0127v-1.96106c0-.56655.4619-1.02724 1.0312-1.02724h5.9405c.5683 0 1.0312.46069 1.0312 1.02724zm-2-.99608h-4.0029v1.00858h4.0029zm.9717 11.94088h-5.9687v-2.9666h5.9658zm2.0313-2.9666h.9814v-5.986h-12v5.986h1.0186v-.9681c0-.5665.4628-1.0272 1.0312-1.0272h7.9375c.5693 0 1.0313.4607 1.0313 1.0272z" fill-rule="evenodd"/></g></svg>