<svg fill="none" height="12" viewBox="0 0 16 12" width="16" xmlns="http://www.w3.org/2000/svg"><path d="m16 0h-16v1h16z" fill="#e03232"/><path d="m16 1h-16v1h16z" fill="#fff"/><path d="m16 2h-16v1h16z" fill="#e03232"/><path d="m16 3h-16v1h16z" fill="#fff"/><path d="m16 4h-16v1h16z" fill="#e03232"/><path d="m16 5h-16v1h16z" fill="#fff"/><path d="m16 6h-16v1h16z" fill="#e03232"/><path d="m16 7h-16v1h16z" fill="#fff"/><path d="m16 8h-16v1h16z" fill="#e03232"/><path d="m16 9h-16v1h16z" fill="#fff"/><path d="m16 10h-16v1h16z" fill="#e03232"/><path d="m9 0h-9v6h9z" fill="#66a1cc"/><path d="m9 0h-9v6h9z" fill="#0035a0"/></svg>