<svg fill="none" height="48" viewBox="0 0 81 48" width="81" xmlns="http://www.w3.org/2000/svg"><path d="m34.4706 24.3591c0 3.8865-2.975 6.7504-6.6259 6.7504-3.651 0-6.6259-2.8639-6.6259-6.7504 0-3.9139 2.9749-6.7505 6.6259-6.7505 3.6509 0 6.6259 2.8366 6.6259 6.7505zm-2.9005 0c0-2.4287-1.7243-4.0905-3.7254-4.0905-2.0012 0-3.7254 1.6618-3.7254 4.0905 0 2.4043 1.7242 4.0904 3.7254 4.0904 2.0011 0 3.7254-1.6891 3.7254-4.0904z" fill="#ea4335"/><path d="m48.7636 24.3591c0 3.8865-2.975 6.7504-6.626 6.7504-3.6509 0-6.6259-2.8639-6.6259-6.7504 0-3.9109 2.975-6.7505 6.6259-6.7505 3.651 0 6.626 2.8366 6.626 6.7505zm-2.9006 0c0-2.4287-1.7242-4.0905-3.7254-4.0905-2.0011 0-3.7254 1.6618-3.7254 4.0905 0 2.4043 1.7243 4.0904 3.7254 4.0904 2.0012 0 3.7254-1.6891 3.7254-4.0904z" fill="#fbbc05"/><path d="m62.463 18.0165v12.1191c0 4.9852-2.8767 7.0213-6.2775 7.0213-3.2013 0-5.128-2.1883-5.8546-3.9778l2.5253-1.0744c.4496 1.0987 1.5515 2.3952 3.3263 2.3952 2.1769 0 3.5259-1.3726 3.5259-3.9565v-.9708h-.1012c-.6492.8186-1.9 1.5339-3.4783 1.5339-3.3025 0-6.3281-2.94-6.3281-6.7231 0-3.8104 3.0256-6.7748 6.3281-6.7748 1.5753 0 2.8261.7153 3.4783 1.5096h.1012v-1.0987h2.7546zm-2.5491 6.3669c0-2.3769-1.5515-4.1148-3.5259-4.1148-2.0012 0-3.6778 1.7379-3.6778 4.1148 0 2.3526 1.6766 4.0661 3.6778 4.0661 1.9744 0 3.5259-1.7135 3.5259-4.0661z" fill="#4285f4"/><path d="m67.0029 10.9131v19.7826h-2.8291v-19.7826z" fill="#34a853"/><path d="m78.0271 26.5809 2.2513 1.5339c-.7266 1.0987-2.4777 2.9918-5.5032 2.9918-3.7523 0-6.5545-2.9644-6.5545-6.7505 0-4.0143 2.8261-6.7504 6.2299-6.7504 3.4276 0 5.1041 2.7878 5.6521 4.2944l.3008.7669-8.8296 3.7374c.676 1.3544 1.7272 2.0452 3.2013 2.0452 1.477 0 2.5014-.7426 3.2519-1.8687zm-6.9297-2.4287 5.9023-2.5047c-.3246-.8431-1.3014-1.4305-2.4509-1.4305-1.4741 0-3.5259 1.33-3.4514 3.9352z" fill="#ea4335"/><path d="m10.5094 22.6031v-2.8639h9.443c.0923.4991.14 1.0895.14 1.7287 0 2.1486-.5748 4.8056-2.427 6.6986-1.8017 1.9174-4.1036 2.94-7.1531 2.94-5.65208 0-10.404878-4.7052-10.404878-10.4817s4.752798-10.4817 10.404878-10.4817c3.1269 0 5.3544 1.2539 7.028 2.8882l-1.9774 2.0209c-1.2001-1.1504-2.826-2.0452-5.0535-2.0452-4.12746 0-7.35554 3.3995-7.35554 7.6178s3.22808 7.6178 7.35554 7.6178c2.6771 0 4.2018-1.0987 5.1786-2.0969.7921-.8096 1.3133-1.9661 1.5188-3.5457z" fill="#4285f4"/></svg>