<svg fill="none" height="32" viewBox="0 0 32 32" width="32" xmlns="http://www.w3.org/2000/svg"><circle cx="16" cy="16" fill="#f1f2f5" r="16"/><path clip-rule="evenodd" d="m21.6562 10.3438c-1.5097-1.5125-3.5185-2.3438-5.6562-2.3438s-4.1465.8313-5.6562 2.3438c-1.51275 1.5093-2.3438 3.5187-2.3438 5.6562s.83105 4.1469 2.3438 5.6562c1.5126 1.5125 3.5185 2.3438 5.6562 2.3438s4.1465-.8313 5.6562-2.3438c1.5127-1.5124 2.3438-3.5187 2.3438-5.6562s-.8311-4.1469-2.3438-5.6562zm-5.6562 11.6562c-3.3096 0-6-2.6907-6-6s2.6904-6 6-6 6 2.6907 6 6-2.6904 6-6 6zm-2-3c-.1279 0-.2568-.05-.3535-.1469-.1963-.1937-.1963-.5125 0-.7062l1.5-1.5c-.0938-.1969-.1465-.4157-.1465-.6469 0-.6531.4189-1.2094 1-1.4156v-3.0844c0-.275.2246-.5.5-.5.2744 0 .5.225.5.5v3.0844c.5811.2062 1 .7625 1 1.4156 0 .8281-.6719 1.5-1.5 1.5-.2314 0-.4502-.0531-.6475-.1469l-1.5 1.5c-.0966.0969-.2246.1469-.3525.1469z" fill="#646b75" fill-rule="evenodd"/></svg>