<svg fill="none" height="16" viewBox="0 0 16 16" width="16" xmlns="http://www.w3.org/2000/svg"><path clip-rule="evenodd" d="m15.2656 11.1968.0869.1594c.2159.4125.8594 1.6281.0196 2.7156-.3594.4844-1.1319 1.375-2.1377 1.7875l-.21.0781-.0869.0032c-.2285.0406-.5.05-.7002.05-.7783 0-4.82811-.1844-8.31541-3.8344-3.681645-3.84687-3.9658252-8.75624-3.54395-9.71876.453125-.97809 1.38086-1.718751 1.89062-2.068727.20899-.134399.40918-.221862.625-.2843624.19336-.0500488.36231-.0718994.53125-.0718994.67579 0 1.23047.3287358 1.53321.5079958l.00781.004516.15918.096863c1.09668.674984 1.52832 4.084354 1.52832 4.115604-.03125.71875-.51269 1.25317-1.20019 1.92816.39062.74689 1.11523 1.70312 1.63769 2.23749.50879.52185 1.35938 1.23752 2.14649 1.69692.60937-.5657 1.04978-.93441 1.57808-1.0563l.3379-.04687.0742.00311c.0313 0 3.419.57506 4.0381 1.69686zm-2.666 2.9626c.4785-.2094 1.0029-.75 1.3311-1.1875.0967-.1282.0468-.3376-.1719-.75l-.0342-.0625c-.4092-.2657-1.9746-.7282-2.5254-.8344-.167.0865-.5986.4891-.9121.781l-.0439.0409c-.39944.3843-1.02444.4874-1.53421.2343-1.05664-.5375-2.22168-1.4937-2.9121-2.2062-.70313-.71876-1.69434-2.04377-2.1377-3.07191-.20605-.50311-.09375-1.07813.27832-1.47815l.03125-.03436.05176-.05103c.27246-.26849.70215-.69263.81347-.88019-.08398-.55005-.4746-2.11566-.72851-2.53753l-.07422-.04688c-.16895-.09997-.48437-.28747-.65625-.24371-.04687.01562-.09082.04059-.10645.04999-.54687.37811-1.00292.84686-1.20996 1.24371-.08984.59375.04688 4.5094 3.17579 7.77816 2.97753 3.1156 6.35551 3.275 7.00291 3.275.1934 0 .3154-.0125.3623-.0187z" fill="#d72323" fill-rule="evenodd"/></svg>