<svg fill="none" height="16" viewBox="0 0 16 16" width="16" xmlns="http://www.w3.org/2000/svg"><path clip-rule="evenodd" d="m13.6562 2.34375c-1.5097-1.512451-3.5185-2.34375-5.6562-2.34375s-4.14648.831299-5.65625 2.34375c-1.512695 1.5094-2.34375 3.5188-2.34375 5.65625 0 2.1375.831055 4.1469 2.34375 5.6562 1.5127 1.5125 3.51855 2.3438 5.65625 2.3438s4.1465-.8313 5.6562-2.3438c1.5127-1.5124 2.3438-3.5187 2.3438-5.6562 0-2.13745-.8311-4.14685-2.3438-5.65625zm-5.6562 11.65625c-3.30957 0-6-2.6907-6-6 0-3.30933 2.69043-6 6-6 3.3096 0 6 2.69067 6 6 0 3.3093-2.6904 6-6 6zm-2-3c-.12793 0-.25684-.05-.35352-.1469-.19628-.1937-.19628-.5125 0-.7062l1.5-1.50005c-.09375-.1969-.14648-.41565-.14648-.64685 0-.65308.41895-1.20935 1-1.41565v-3.08435c0-.27502.22461-.5.5-.5.27441 0 .5.22498.5.5v3.08435c.58105.2063 1 .76257 1 1.41565 0 .82812-.67188 1.5-1.5 1.5-.23145 0-.4502-.0531-.64746-.14685l-1.5 1.49995c-.09668.0969-.22461.1469-.35254.1469z" fill="#d72323" fill-rule="evenodd"/></svg>