<svg fill="none" height="48" viewBox="0 0 48 48" width="48" xmlns="http://www.w3.org/2000/svg"><circle cx="24" cy="24" fill="#e7e7ed" r="24"/><g fill="#09101d" opacity=".7"><path d="m18.978 21.4854h-1.2475v1.2475h1.2475z"/><path d="m20.2256 21.4854h1.2475v1.2475h-1.2475z"/><path d="m23.9683 21.4854h-1.2476v1.2475h1.2476z"/><path d="m25.2158 21.4854h1.2476v1.2475h-1.2476z"/><path d="m28.9585 21.4854h-1.2476v1.2475h1.2476z"/><path d="m17.7305 23.9805h1.2475v1.2476h-1.2475z"/><path d="m21.4731 23.9805h-1.2475v1.2476h1.2475z"/><path d="m22.7207 23.9805h1.2476v1.2476h-1.2476z"/><path d="m26.4634 23.9805h-1.2476v1.2476h1.2476z"/><path d="m27.7109 23.9805h1.2476v1.2476h-1.2476z"/><path d="m18.978 26.4756h-1.2475v1.2476h1.2475z"/><path d="m17.7305 28.9708h1.2475v1.2475h-1.2475z"/><path d="m21.4731 28.9708h-1.2475v1.2475h1.2475z"/><path d="m20.2256 26.4756h1.2475v1.2476h-1.2475z"/><path d="m23.9683 26.4756h-1.2476v1.2476h1.2476z"/><path clip-rule="evenodd" d="m31.4658 17.7427c1.3648 0 2.4719 1.1072 2.4719 2.4717v10.0078l-3.7426 3.7427h-13.7232c-1.3647 0-2.4719-1.3021-2.4719-2.6667v-11.0838c0-1.3645 1.1072-2.4717 2.4719-2.4717h.011v-2.4951c0-.6901.5579-1.2476 1.2476-1.2476.6909 0 1.2475.5575 1.2475 1.2476v2.4951h3.7427v-2.4951c0-.6901.5579-1.2476 1.2476-1.2476.6909 0 1.2475.5575 1.2475 1.2476v2.4951h3.7427v-2.4951c0-.6901.5579-1.2476 1.2476-1.2476.6909 0 1.2475.5575 1.2475 1.2476v2.4951zm-2.5183 13.7232 2.4951-2.4951h-2.4951zm2.4951-4.9902h-4.9902v4.9902h-9.8792c-.039-.0468-.0781-.1209-.0781-.1716v-11.0565h14.9475z" fill-rule="evenodd"/></g></svg>