<svg fill="none" height="48" viewBox="0 0 75 48" width="75" xmlns="http://www.w3.org/2000/svg"><path d="m72.0656 21.8015-.1304-.0448c.5699-.1459 1.1015-.4135 1.5582-.7843s.8277-.8361 1.0875-1.3639c.2599-.5278.4023-1.1056.4177-1.6937s-.0968-1.1725-.3287-1.7132c-.7834-1.814-1.9596-3.4315-3.4439-4.7358-.7404-.6511-1.6918-1.0116-2.6777-1.0149-.6897-.0058-1.3693.1668-1.9727.501s-1.1102.8187-1.4712 1.4064v-6.61471c.0032-.5344-.0993-1.06416-.3017-1.55877-.2024-.4946-.5007-.94427-.8776-1.32311-.3769-.37883-.8251-.67934-1.3187-.88422s-1.0228-.31007-1.5572-.30952c-1.3298.07237-2.6482.2855-3.933.6358-1.1837.31807-2.3364.74229-3.4439 1.26751-.5047.24346-.9539.58838-1.3193 1.01324-.3654.42485-.6393.92051-.8045 1.45599-.1653.53547-.2183 1.09927-.1558 1.65617s.2391 1.09493.5189 1.58047l3.3054 5.72625c-.5206-.2726-1.0939-.4294-1.6807-.4597s-1.1732.0667-1.719.2843c-.5459.2175-1.0382.5505-1.4433.9762-.4051.4256-.7133.9338-.9037 1.4897-.0407.1223-.0815.2445-.1181.3668-.5698-.5488-1.2268-.9992-1.9441-1.3327-1.0699-.5076-2.2394-.7707-3.4235-.7703-.8874-.0009-1.7684.1507-2.6044.4483-.755-.3966-1.6096-.5636-2.4584-.4803s-1.6546.4132-2.3182.949v-.8151c.0179-.5842-.0818-1.166-.293-1.7109-.2112-.545-.5297-1.042-.9366-1.4615s-.8939-.7531-1.4322-.9808c-.5382-.2278-1.1167-.3452-1.7011-.3452-.5845 0-1.163.1174-1.7012.3452-.5382.2277-1.0252.5613-1.4321.9808s-.7255.9165-.9367 1.4615c-.2112.5449-.3108 1.1267-.293 1.7109v2.4087c-.7532-.7804-1.6571-1.3995-2.6569-1.8199-.9997-.4204-2.0745-.6332-3.159-.6255-1.865.0173-3.6687.6684-5.1149 1.8462-.4787-.665-1.1334-1.1833-1.8906-1.4967-.7571-.3134-1.5866-.4094-2.3953-.2773s-1.5645.4871-2.1825 1.0251c-.61805.538-1.0738 1.2378-1.31603 2.0205l-.18748.6318-.59912-1.2227c-.25195-.5219-.60456-.9888-1.03755-1.3739s-.93782-.6808-1.48548-.8702-1.12735-.2686-1.70574-.2332c-.5784.0354-1.14409.1847-1.66457.4395-.52095.2523-.987.605-1.37146 1.0378-.384469.4327-.679799.937-.869087 1.4841-.1892881.547-.2688151 1.126-.23402685 1.7039.03478825.5778.18320785 1.1431.43676085 1.6634l4.177513 8.5588c-.60557.2457-1.14766.6252-1.58561 1.1103-.43795.485-.76038 1.0629-.94312 1.6903s-.22103 1.2881-.11201 1.9324c.10902.6444.36252 1.2556.7415 1.788.61134.8152 1.81773 1.8341 4.07562 1.887h.24454c3.17895 0 5.50615-1.5731 6.38245-4.316.3586-1.1249.7784-2.4454 1.2227-3.823.0774.1712.1589.3465.2486.5095 1.3775 2.6125 3.8922 4.0511 7.0793 4.0511 3.0078 0 5.1149-1.0148 6.4191-2.3353.3034.5645.7275 1.0551 1.2422 1.4368.5147.3818 1.1073.6453 1.7355.7718s1.2766.1128 1.8989-.04 1.2033-.441 1.7015-.844v.8151c.0165 1.1367.4758 2.2221 1.2802 3.0253.8045.8033 1.8905 1.261 3.0272 1.2759 1.1367.0148 2.2344-.4144 3.0595-1.1963.8252-.7819 1.3127-1.8549 1.359-2.9908 0 0 3.4316.1957 5.6773-2.2008.4079-.4169.7649-.8807 1.0637-1.3816.5006.2735 1.0569.4295 1.6267.4564.5698.0268 1.1383-.0763 1.6624-.3016.2545.3224.5552.6053.8925.8396 1.628 1.1125 3.477 1.8605 5.4206 2.1927.2222.0374.4471.0565.6725.0571 1.0528.0037 2.0656-.4035 2.8229-1.1349.7573-.7315 1.1994-1.7295 1.2323-2.7818v-.1386l.0734.1182c.3082.4876.7165.9042 1.1977 1.2223.4813.318 1.0246.5303 1.594.6228.5694.0924 1.1519.063 1.7091-.0865.5572-.1494 1.0762-.4154 1.5229-.7804 1.5191-1.258 2.747-2.8307 3.5988-4.6096.2453-.5216.3772-1.0894.3869-1.6658s-.103-1.1483-.3306-1.678c-.2277-.5296-.5651-1.0049-.99-1.3945s-.9276-.6847-1.475-.8656z" fill="#fff"/><g fill="#050505"><path d="m52.2449 27.7398c.1698.0008.3355.0518.4763.1466.1407.0948.2503.2292.3149.3861.0646.157.0813.3296.048.496s-.1152.3193-.2352.4393-.2728.2019-.4393.2352c-.1664.0333-.339.0166-.496-.048-.1569-.0646-.2913-.1742-.3861-.315-.0948-.1407-.1458-.3065-.1466-.4762-.0011-.1138.0205-.2266.0635-.3319.0431-.1053.1067-.201.1871-.2815.0805-.0804.1762-.144.2815-.1871.1053-.043.2182-.0646.3319-.0635zm0 1.5895c.1458.0016.2888-.0403.4106-.1202.1219-.08.2172-.1945.2737-.3289.0566-.1344.0718-.2826.0437-.4256-.028-.1431-.098-.2745-.2011-.3776s-.2346-.1731-.3776-.2012c-.1431-.028-.2913-.0128-.4256.0437-.1344.0565-.2489.1518-.3289.2737s-.1218.2648-.1202.4106c-.0006.0954.0178.19.0541.2783.0363.0882.0897.1684.1571.2359.0675.0675.1477.1209.236.1572.0882.0362.1828.0546.2782.0541zm-.3219-1.2227h.3668c.2363 0 .3464.0897.3464.2853.0017.0351-.0039.0701-.0163.103-.0124.0328-.0314.0628-.0558.088-.0245.0252-.0539.0451-.0863.0586-.0325.0134-.0673.02-.1024.0194l.2852.4401h-.1508l-.2689-.4279h-.1794v.4279h-.1385zm.1385.4442h.1712c.1386 0 .269 0 .269-.1671s-.1182-.1508-.2242-.1508h-.216z"/><path clip-rule="evenodd" d="m33.7843 31.0045c0 .4086-.1623.8004-.4512 1.0893-.2889.289-.6808.4513-1.0894.4513s-.8004-.1623-1.0893-.4513c-.289-.2889-.4513-.6807-.4513-1.0893v-15.3284c0-.4086.1623-.8005.4513-1.0894.2889-.2889.6807-.4512 1.0893-.4512s.8005.1623 1.0894.4512.4512.6808.4512 1.0894z" fill-rule="evenodd"/><path d="m20.4429 26.7373h5.6488c.4226-.0383.8143-.238 1.0936-.5575.2792-.3195.4247-.7344.4062-1.1583 0-.0285 0-.053 0-.0815-.273-5.6244-3.8881-6.4395-5.5265-6.4395-1.7036 0-5.5591 1.0067-5.5591 7.2627.0285 2.3517.5339 6.8471 5.4776 6.8471 4.2712 0 5.229-2.4698 5.229-3.0975 0-.9292-.7744-1.7158-1.6302-1.4183-.7092.2405-1.6792 1.6506-3.2605 1.6506-2.2416 0-2.531-2.0378-2.531-2.4861-.0081-.3831.1875-.5217.6521-.5217zm-.6684-2.7551c.1019-2.1275 1.7158-2.478 2.4454-2.478.7295 0 2.3435.3546 2.4453 2.5147 0 .1141-.0611.1834-.1304.1834h-4.6258c-.0734-.0204-.1426-.0978-.1345-.2405z"/><path d="m7.81056 30.6292-4.81331-9.863c-.18375-.3783-.20969-.8141-.07212-1.2116.13758-.3974.42741-.7239.80574-.9077.37832-.1837.81414-.2097 1.21159-.0721s.72397.4274.90773.8057l3.72919 7.6337 2.29052-7.4095c.1243-.401.4028-.7363.7743-.9319.3714-.1957.8054-.2358 1.2064-.1115s.7363.4029.9319.7743c.1957.3715.2358.8055.1115 1.2065 0 0-2.5758 8.4284-4.1245 13.2702-.5136 1.6058-1.85445 2.4005-3.8678 2.3475-2.01336-.0529-2.30273-1.2226-2.07857-1.9929.24046-.8518.9537-1.1086 1.63025-1.1086 1.80142.0122 2.03373-1.08 1.35718-2.4291z"/><path d="m49.0025 24.8826c0-2.0378-.2486-4.7929-2.804-6.0074-.7179-.3436-1.5071-.512-2.3027-.4915-.7956.0206-1.575.2295-2.2742.6097-.2702.1564-.5315.3278-.7825.5135-.09-.365-.3104-.6844-.6195-.8982-.3092-.2138-.6858-.3072-1.059-.2626-.3733.0446-.7173.2241-.9674.5047s-.389.6429-.3905 1.0188v15.3284c0 .4086.1623.8005.4513 1.0894.2889.2889.6807.4512 1.0893.4512s.8005-.1623 1.0894-.4512.4512-.6808.4512-1.0894v-4.0226c.3389.3841.7502.6977 1.2103.9229.4602.2252.9602.3575 1.4715.3894 5.8485.1508 5.4654-6.2112 5.4368-7.6051zm-3.0526 1.1697c0 1.2227 0 3.4032-2.2131 3.4032-2.213 0-2.213-2.1886-2.213-3.4032v-1.1126c0-1.2227 0-3.4031 2.213-3.4031 2.2131 0 2.2131 2.1845 2.2131 3.4031z"/></g><path clip-rule="evenodd" d="m53.8573 17.4816 5.3798 2.6247c.232.1072.4245.2843.5505.5065.1261.2223.1794.4784.1524.7325-.027.254-.1329.4933-.3028.6841-.1699.1907-.3953.3235-.6446.3796l-5.8078 1.4468c-.1706.0444-.3489.0514-.5225.0204-.1736-.0309-.3384-.0991-.4832-.1997-.1448-.1007-.2661-.2315-.3556-.3834-.0895-.152-.1451-.3215-.1629-.4969-.1804-1.5562-.0148-3.133.485-4.6177.0563-.166.1477-.3179.2679-.4455.1202-.1275.2664-.2278.4288-.2939.1623-.0661.337-.0965.5121-.0892.1751.0074.3467.0523.5029.1317z" fill="#6c6c6c" fill-rule="evenodd"/><path clip-rule="evenodd" d="m56.008 28.5551 4.0064-4.4465c.1667-.194.39-.3308.6385-.3912.2486-.0604.5098-.0413.7469.0546.2371.0958.4382.2636.575.4797.1367.2161.2023.4696.1874.725l-.2038 5.983c-.0042.1763-.0466.3496-.1242.5081-.0775.1584-.1885.2981-.3251.4096-.1367.1115-.2959.1922-.4667.2364-.1707.0441-.349.0509-.5226.0196-1.5393-.257-3.0039-.8467-4.2917-1.728-.1476-.098-.2722-.227-.3651-.378-.0929-.1509-.1519-.3203-.1728-.4963s-.0034-.3544.0515-.523c.0549-.1685.1458-.3231.2663-.453z" fill="#6c6c6c" fill-rule="evenodd"/><path clip-rule="evenodd" d="m65.5005 22.6371 5.7058 1.8504c.1682.0525.3229.1408.4537.2588.1309.1179.2347.2627.3043.4245.0697.1618.1036.3367.0994.5128s-.0464.3492-.1237.5075c-.6718 1.4163-1.6456 2.6683-2.853 3.668-.1347.1133-.2923.1962-.462.243s-.3475.0564-.5212.0282c-.1738-.0283-.3394-.0937-.4855-.1919-.1461-.0981-.2694-.2266-.3612-.3768l-3.1749-5.0782c-.1473-.213-.2231-.4672-.2166-.726s.095-.5088.2527-.7141.3765-.3553.6249-.4283.5136-.0652.7573.0221z" fill="#6c6c6c" fill-rule="evenodd"/><path clip-rule="evenodd" d="m71.2867 18.9933-5.7507 1.6506c-.2442.0762-.5061.0739-.7489-.0066s-.4543-.2352-.6046-.4422-.2319-.4559-.2333-.7117.0775-.5056.2256-.7142l3.346-4.9641c.0969-.1469.2243-.2712.3735-.3643.1493-.0932.3169-.153.4914-.1754.1745-.0225.3518-.007.5197.0453.168.0524.3227.1404.4535.258 1.1718 1.0323 2.1002 2.3115 2.7185 3.7455.0721.1608.1087.3354.107.5116-.0016.1763-.0413.3502-.1164.5097s-.1838.3008-.3187.4144c-.1348.1135-.2926.1966-.4626.2434z" fill="#6c6c6c" fill-rule="evenodd"/><path clip-rule="evenodd" d="m57.8476 5.04647c-1.016.27187-2.0051.63612-2.9548 1.08819-.1547.07225-.2926.17611-.4047.30488-.1121.12878-.1961.27961-.2464.44279s-.0658.33508-.0456.50464c.0201.16956.0756.33301.1628.47983l5.6203 9.7367c.1294.2446.338.4382.5917.5489.2536.1107.5374.1321.8048.0606.2674-.0714.5026-.2315.6673-.454.1646-.2226.2488-.4944.2389-.771v-11.2446c.0006-.16988-.0341-.33804-.1021-.49374s-.1676-.29552-.2926-.41056-.2726-.20277-.4334-.25759-.3313-.07552-.5005-.06079c-1.0491.08025-2.0886.25623-3.1057.52575z" fill="#6c6c6c" fill-rule="evenodd"/></svg>