<svg fill="none" height="40" viewBox="0 0 157 40" width="157" xmlns="http://www.w3.org/2000/svg"><g fill="#fff"><path d="m59.6976 14.572v2.428h-10.075v-1.4215l6.0803-9.74305h-6.1011v-2.42798h10.0128v1.35925l-6.1011 9.80528z"/><path d="m66.7533 10.7329c0-1.05834-.4358-1.58751-1.3074-1.58751-.8508 0-1.3281.59489-1.4319 1.78471l.0312.0518h2.7081zm2.8949 5.354v-.0104zm-8.8715-3.7872v-.3632c0-1.5771.4116-2.84299 1.2348-3.79758.8231-.95459 1.968-1.42843 3.4344-1.42151 1.3697 0 2.4418.40812 3.2166 1.22436.7816.81625 1.1725 1.93339 1.1725 3.35143v1.6602h-5.7691l-.0207.0518c.0691.5396.2836.9719.6433 1.297.3597.3252.8266.4877 1.4007.4877.5811 0 1.0445-.0415 1.3904-.1245s.8197-.249 1.4215-.498l.7471 1.9091c-.4635.339-1.048.6122-1.7535.8197-.6987.2076-1.4388.3113-2.2205.3113-1.4734 0-2.6597-.46-3.559-1.38-.8923-.92-1.3385-2.0959-1.3385-3.5278z"/><path d="m73.9231 11.8743v.1971c0 1.8123.5776 2.7185 1.7328 2.7185 1.1621 0 1.7431-.9062 1.7431-2.7185v-.1971c0-1.8124-.581-2.71854-1.7431-2.71854-1.1552 0-1.7328.90614-1.7328 2.71854zm-3.1543.1971v-.1971c0-1.5495.4323-2.79463 1.297-3.73538.8647-.94076 2.0614-1.41114 3.5901-1.41114s2.7254.47038 3.5901 1.41114c.8646.94075 1.297 2.18588 1.297 3.73538v.1971c0 1.5564-.4324 2.805-1.297 3.7457-.8647.9339-2.0614 1.4008-3.5901 1.4008s-2.7254-.4669-3.5901-1.4008c-.8647-.9338-1.297-2.1824-1.297-3.7457z"/><path d="m81.8815 6.8938h2.9571l.1245 1.42151c.6987-1.07219 1.6498-1.60828 2.8534-1.60828 2.1029 0 3.1543 1.34196 3.1543 4.02587v6.2671h-3.1543v-6.2775c0-.5672-.1176-.97185-.3528-1.21396-.2282-.24902-.6018-.37353-1.1206-.37353s-.958.2006-1.3177.60181v7.26318h-3.1439z"/><path d="m51.2002 31.8994v.166c0 .8965.1826 1.6131.5478 2.1499.3708.5368.9021.8052 1.5938.8052s1.223-.2684 1.5937-.8052c.3708-.5423.5562-1.2589.5562-2.1499v-.166c0-.8799-.1882-1.591-.5645-2.1333-.3707-.5478-.902-.8218-1.5937-.8218-.6862 0-1.2147.274-1.5855.8218-.3652.5423-.5478 1.2534-.5478 2.1333zm-1.4775.166v-.166c0-1.2174.3265-2.208.9794-2.9717.653-.7636 1.5329-1.1455 2.6397-1.1455s1.9867.3819 2.6396 1.1455c.653.7582.9795 1.7487.9795 2.9717v.166c0 1.2285-.3265 2.2219-.9795 2.98-.6474.7526-1.5273 1.1289-2.6396 1.1289-1.1068 0-1.9867-.3791-2.6397-1.1372-.6529-.7581-.9794-1.7487-.9794-2.9717z"/><path d="m60.854 36h-1.4775v-6.9893h-1.2701v-1.0957h1.2701v-1.021c0-.8632.2213-1.5301.664-2.0004.4483-.4704 1.0791-.7056 1.8926-.7056.2822 0 .6475.0526 1.0957.1577l-.1826 1.1206c-.2103-.0498-.451-.0747-.7222-.0747-.8467 0-1.27.5008-1.27 1.5024v1.021h1.6768v1.0957h-1.6768z"/><path d="m71.9771 26.2798h-1.8677v8.5664h1.8677c1.0016 0 1.7929-.3237 2.374-.9712.5866-.653.8799-1.508.8799-2.5649v-1.5025c0-1.0514-.2933-1.9009-.8799-2.5483-.5866-.653-1.378-.9795-2.374-.9795zm0 9.7202h-3.337v-10.874h3.337c1.4277 0 2.5704.4344 3.4282 1.3032.8633.8633 1.2949 1.995 1.2949 3.395v1.4859c0 1.4-.4316 2.5317-1.2949 3.395-.8578.8633-2.0005 1.2949-3.4282 1.2949z"/><path d="m80.0288 27.915v8.085h-1.4692v-8.085zm0-3.5693v1.5024h-1.4692v-1.5024z"/><path d="m84.5942 36.1743c-.8411 0-1.483-.213-1.9257-.6391-.4428-.4262-.6641-1.0238-.6641-1.793s.3099-1.3724.9297-1.8096 1.472-.6557 2.5566-.6557h1.5938v-.7969c0-.4759-.1467-.8495-.44-1.1206-.2877-.2767-.6806-.4151-1.1787-.4151-.4925 0-.8882.119-1.187.357-.2988.2324-.4482.5229-.4482.8716h-1.4029l-.0166-.0416c-.0276-.6087.2546-1.151.8467-1.6269.5977-.4815 1.3558-.7222 2.2744-.7222.9242 0 1.6602.238 2.208.7139.5479.4704.8218 1.1372.8218 2.0005v3.893c0 .6254.0692 1.1677.2075 1.627h-1.519c-.1052-.5146-.1605-.9186-.166-1.2119-.2878.4095-.653.7415-1.0957.9961-.4372.249-.902.3735-1.3946.3735zm-1.104-2.3989h-.0083c0 .3652.1135.6502.3404.855.2269.2047.5783.3071 1.0542.3071s.9297-.1328 1.3613-.3984c.4372-.2712.7222-.5866.855-.9463v-1.3199h-1.6436c-.5866 0-1.0597.1467-1.4194.44-.3597.2878-.5396.6419-.5396 1.0625z"/><path d="m92.1812 36h-1.461v-8.085h1.3115l.1079 1.0625c.5534-.8079 1.3724-1.2119 2.4571-1.2119 1.0901 0 1.8289.4981 2.2163 1.4942.5589-.9961 1.3835-1.4942 2.4736-1.4942.8464 0 1.5024.2878 1.9674.8633.465.57.697 1.4167.697 2.54v4.8311h-1.469v-4.8477c0-.7802-.133-1.3391-.399-1.6767-.2651-.3431-.6636-.5147-1.1948-.5147-.5257 0-.9463.1716-1.2617.5147-.3099.3376-.4925.7803-.5479 1.3281v5.1963h-1.4858v-4.8477c0-.7526-.1384-1.3059-.4151-1.6601-.2711-.3542-.6779-.5313-1.2202-.5313-.8522 0-1.4443.3514-1.7763 1.0542z"/><path d="m105.222 31.8994v.166c0 .8965.182 1.6131.548 2.1499.37.5368.902.8052 1.593.8052.692 0 1.223-.2684 1.594-.8052.371-.5423.556-1.2589.556-2.1499v-.166c0-.8799-.188-1.591-.564-2.1333-.371-.5478-.902-.8218-1.594-.8218-.686 0-1.215.274-1.585.8218-.366.5423-.548 1.2534-.548 2.1333zm-1.478.166v-.166c0-1.2174.327-2.208.98-2.9717.653-.7636 1.533-1.1455 2.639-1.1455 1.107 0 1.987.3819 2.64 1.1455.653.7582.979 1.7487.979 2.9717v.166c0 1.2285-.326 2.2219-.979 2.98-.648.7526-1.527 1.1289-2.64 1.1289-1.106 0-1.986-.3791-2.639-1.1372s-.98-1.7487-.98-2.9717z"/><path d="m112.792 27.915h1.312l.107 1.2037c.559-.9021 1.359-1.3531 2.399-1.3531.886 0 1.564.2601 2.034.7803.47.5146.706 1.2977.706 2.3491v5.105h-1.47v-5.0718c0-.7028-.138-1.2064-.415-1.5107-.276-.3044-.708-.4566-1.295-.4566-.42 0-.794.0996-1.12.2989-.327.1992-.59.4814-.789.8466v5.8936h-1.469z"/><path d="m121.143 32.1235c0-1.3226.279-2.3768.838-3.1626s1.323-1.1787 2.291-1.1787 1.713.3431 2.233 1.0293v-4.4492h1.477v11.6543h-1.203l-.175-.9961c-.536.7692-1.3 1.1538-2.291 1.1538-.99 0-1.765-.3514-2.324-1.0542-.559-.7083-.838-1.6546-.838-2.8389zm1.485 0v.1577c0 .8467.169 1.508.507 1.9839.343.4759.858.7139 1.544.7139.83 0 1.444-.3791 1.842-1.1372v-3.7686c-.409-.7304-1.018-1.0957-1.826-1.0957-.691 0-1.209.2823-1.552.8467-.343.5589-.515 1.3254-.515 2.2993z"/><path d="m139.014 30.895h-2.764v3.9512h2.548c.675 0 1.198-.1633 1.569-.4898.371-.332.556-.8134.556-1.4443s-.16-1.1234-.481-1.4775c-.316-.3597-.791-.5396-1.428-.5396zm-2.764-4.6152v3.4697h2.382c.559 0 1.007-.1522 1.345-.4565.343-.3044.515-.7222.515-1.2534 0-1.1732-.72-1.7598-2.159-1.7598zm2.548 9.7202h-4.017v-10.874h3.552c1.163 0 2.056.249 2.682.747.631.4926.946 1.223.946 2.1915 0 .4814-.152.913-.457 1.2949-.304.3818-.713.664-1.228.8467.653.1438 1.168.4648 1.544.9628.382.4926.573 1.0791.573 1.7598 0 .9906-.319 1.7515-.955 2.2827-.631.5257-1.511.7886-2.64.7886z"/><path d="m146.584 36.1743c-.841 0-1.483-.213-1.925-.6391-.443-.4262-.664-1.0238-.664-1.793s.31-1.3724.929-1.8096c.62-.4372 1.472-.6557 2.557-.6557h1.594v-.7969c0-.4759-.147-.8495-.44-1.1206-.288-.2767-.681-.4151-1.179-.4151-.492 0-.888.119-1.187.357-.299.2324-.448.5229-.448.8716h-1.403l-.017-.0416c-.027-.6087.255-1.151.847-1.6269.598-.4815 1.356-.7222 2.274-.7222.925 0 1.661.238 2.208.7139.548.4704.822 1.1372.822 2.0005v3.893c0 .6254.069 1.1677.208 1.627h-1.519c-.105-.5146-.161-.9186-.166-1.2119-.288.4095-.653.7415-1.096.9961-.437.249-.902.3735-1.395.3735zm-1.104-2.3989h-.008c0 .3652.114.6502.34.855.227.2047.579.3071 1.055.3071s.929-.1328 1.361-.3984c.437-.2712.722-.5866.855-.9463v-1.3199h-1.644c-.586 0-1.059.1467-1.419.44-.36.2878-.54.6419-.54 1.0625z"/><path d="m154.171 36.0083h-1.469v-8.085h1.312l.141 1.1788c.492-.891 1.162-1.3365 2.009-1.3365.199 0 .387.0277.564.083l-.199 1.378-.756-.0498c-.758 0-1.292.3514-1.602 1.0542z"/><path d="m0 0h36v40h-36z"/></g><path clip-rule="evenodd" d="m18.741 13.9921h-7.2176v-3.9842h14.4461l-6.4121 10.1526-3.3685-2.1275z" fill="#d72323" fill-rule="evenodd"/><path clip-rule="evenodd" d="m16.2582 25.6954h7.2176v3.9842h-14.44607l6.41217-10.1526 3.3685 2.1275z" fill="#d72323" fill-rule="evenodd"/></svg>